<svg width="51" height="51" viewBox="0 0 51 51" fill="none" xmlns="http://www.w3.org/2000/svg">
<path d="M33.6599 22.7258L27.8051 28.968C27.5144 29.2911 27.1588 29.5496 26.7617 29.7265C26.3647 29.9033 25.9346 29.9949 25.4999 29.9949C25.0652 29.9949 24.6352 29.9033 24.2382 29.7265C23.841 29.5496 23.4854 29.2911 23.1947 28.968L17.3399 22.7258" stroke="black" stroke-width="3.6" stroke-linecap="round" stroke-linejoin="round"/>
<path d="M43.8601 35.8634L43.8601 15.4634C43.8601 10.9566 40.2068 7.3034 35.7001 7.30341L15.3001 7.30341C10.7935 7.30341 7.14011 10.9566 7.14011 15.4634L7.14011 35.8634C7.14011 40.37 10.7935 44.0234 15.3001 44.0234L35.7001 44.0234C40.2068 44.0234 43.8601 40.37 43.8601 35.8634Z" stroke="black" stroke-width="3.6" stroke-linecap="round" stroke-linejoin="round"/>
</svg>
