<svg width="47" height="47" viewBox="0 0 47 47" fill="none" xmlns="http://www.w3.org/2000/svg">
<g clip-path="url(#clip0_5_6)">
<path d="M45.1889 11.8573L44.0578 12.0743C43.5275 12.1762 43.11 12.5232 42.9126 13.0269C42.7144 13.5298 42.7849 14.0679 43.1045 14.5034L43.815 15.4716C44.0437 15.7834 44.0108 16.2158 43.7366 16.4892L42.2021 18.023C41.9365 18.2885 41.519 18.3277 41.2088 18.1178L40.2555 17.4723C39.9962 17.2968 39.6993 17.2036 39.3946 17.2036C38.7335 17.2036 37.9948 17.6548 37.8624 18.5165L37.6799 19.7032C37.6219 20.0847 37.2929 20.3667 36.9067 20.3667H34.7369C34.3617 20.3667 34.0382 20.0996 33.9677 19.7306L33.6872 18.2697C33.5298 17.4464 32.8021 17.0156 32.166 17.0156C31.8613 17.0156 31.5636 17.108 31.3051 17.2835L30.0737 18.117C29.7635 18.3269 29.346 18.2877 29.0805 18.0222L27.5459 16.4884C27.2718 16.215 27.2388 15.7834 27.4676 15.4709L28.1781 14.5027C28.4977 14.0671 28.5682 13.529 28.37 13.0261C28.1726 12.5224 27.7551 12.1754 27.2248 12.0735L26.0936 11.8566C25.7247 11.7853 25.4576 11.4625 25.4576 11.0873V8.9175C25.4576 8.53131 25.7395 8.20232 26.1218 8.14357L27.3086 7.96105C27.8436 7.8788 28.2736 7.54745 28.4898 7.05238C28.706 6.55653 28.6559 6.01603 28.3527 5.56797L27.7073 4.61465C27.4966 4.30445 27.5365 3.88693 27.8021 3.62138L29.3358 2.08683C29.6084 1.81345 30.04 1.78133 30.3534 2.0085L31.3216 2.71898C31.5895 2.91638 31.9028 3.02057 32.2271 3.02057C32.864 3.02057 33.5917 2.58895 33.7499 1.76567L33.9669 0.634533C34.039 0.267149 34.3617 3.24249e-05 34.7377 3.24249e-05H36.9075C37.2937 3.24249e-05 37.6227 0.282032 37.6815 0.664299L37.8099 1.49855C37.9423 2.36021 38.6818 2.81142 39.3437 2.81142C39.6672 2.81142 39.9805 2.70645 40.2492 2.50905L40.9299 2.00928C41.2425 1.77976 41.6749 1.81345 41.9475 2.08762L43.4813 3.62217C43.7468 3.88772 43.7868 4.30445 43.576 4.61543L42.9306 5.56875C42.6274 6.01603 42.5773 6.55732 42.7935 7.05317C43.0089 7.54823 43.4397 7.87958 43.9748 7.96183L45.1615 8.14435C45.543 8.2031 45.8258 8.5321 45.8258 8.91828V11.0881C45.825 11.4633 45.5579 11.7861 45.1889 11.8573ZM44.2583 9.5896L43.7358 9.50892C42.6752 9.34598 41.7861 8.66135 41.3576 7.67826C40.9284 6.6944 41.0318 5.57736 41.6334 4.68985L41.9162 4.27233L41.3146 3.67073L41.1759 3.77257C40.6362 4.16815 40.0025 4.3773 39.3429 4.3773C37.7927 4.3773 36.4955 3.26653 36.2605 1.73668L36.2354 1.5667H35.3847L35.2899 2.06255C35.0087 3.52581 33.7201 4.5888 32.2279 4.5888C31.5675 4.5888 30.9346 4.37887 30.3949 3.98485L29.9688 3.6723L29.3672 4.2739L29.65 4.69141C30.2516 5.57971 30.3542 6.69675 29.9257 7.67983C29.4972 8.66292 28.6073 9.34755 27.5475 9.51048L27.025 9.5896V10.4403L27.5208 10.5351C28.5752 10.738 29.4377 11.4555 29.8293 12.4535C30.221 13.4522 30.0761 14.5646 29.4424 15.4301L29.1298 15.8563L29.7314 16.4579L30.4278 15.9863C30.9464 15.6354 31.548 15.4489 32.1668 15.4489C33.659 15.4489 34.9461 16.5103 35.2273 17.9744L35.3847 18.8H36.2354L36.3161 18.2775C36.5519 16.7477 37.8475 15.6369 39.3977 15.6369C40.0158 15.6369 40.6166 15.8226 41.136 16.1751L41.5535 16.4579L42.1551 15.8563L41.8425 15.4301C41.208 14.5653 41.0639 13.453 41.4556 12.4535C41.8472 11.4555 42.7105 10.738 43.764 10.5351L44.2599 10.4403V9.5896H44.2583Z" fill="#4D7298"/>
<path d="M35.6416 14.1C33.482 14.1 31.725 12.343 31.725 10.1833C31.725 8.02366 33.482 6.26664 35.6416 6.26664C37.8013 6.26664 39.5583 8.02366 39.5583 10.1833C39.5583 12.343 37.8013 14.1 35.6416 14.1ZM35.6416 7.83331C34.346 7.83331 33.2916 8.88768 33.2916 10.1833C33.2916 11.4789 34.346 12.5333 35.6416 12.5333C36.9373 12.5333 37.9916 11.4789 37.9916 10.1833C37.9916 8.88768 36.9373 7.83331 35.6416 7.83331Z" fill="#4D7298"/>
<path d="M14.4916 29.7666H30.1583V37.6H14.4916V29.7666ZM16.8416 36.0333H27.8083V34.4666H16.8416V36.0333ZM16.8416 32.9H27.8083V31.3333H16.8416V32.9Z" fill="#4D7298"/>
<path d="M24.6734 4.32635L25.6941 5.8327L23.7726 6.12802C23.3911 6.18677 23.1083 6.51577 23.1083 6.90195V13.0284C23.1083 13.4036 23.3754 13.7271 23.7444 13.7976L25.5304 14.1407L24.3797 15.7074C24.1509 16.0192 24.1838 16.4516 24.458 16.725L28.7914 21.056C29.0577 21.3216 29.4737 21.3607 29.7847 21.1508L31.6161 19.9108L31.6584 20.1575L32.0274 22.0798C32.0979 22.4495 32.4206 22.7167 32.7958 22.7167H37.2083V47H9.00832H1.17499V0H9.00832H28.0997L24.7682 3.33387C24.5027 3.59941 24.4627 4.01615 24.6734 4.32635ZM7.44165 1.56667H2.74165V45.4333H7.44165V1.56667ZM12.925 39.1667H31.725V28.2H12.925V39.1667Z" fill="#4D7298"/>
<path d="M45.1889 11.8573L44.0578 12.0743C43.5275 12.1761 43.11 12.5231 42.9126 13.0268C42.7144 13.5297 42.7849 14.0679 43.1045 14.5034L43.815 15.4716C44.0437 15.7834 44.0108 16.2158 43.7366 16.4891L42.2021 18.0229C41.9365 18.2885 41.519 18.3276 41.2088 18.1177L40.2555 17.4722C39.9962 17.2968 39.6993 17.2035 39.3946 17.2035C38.7335 17.2035 37.9948 17.6547 37.8624 18.5164L37.6799 19.7032C37.6219 20.0846 37.2929 20.3666 36.9067 20.3666H34.7369C34.3617 20.3666 34.0382 20.0995 33.9677 19.7306L33.6872 18.2697C33.5298 17.4464 32.8021 17.0155 32.166 17.0155C31.8613 17.0155 31.5636 17.108 31.3051 17.2834L30.0737 18.1169C29.7635 18.3268 29.346 18.2877 29.0805 18.0221L27.5459 16.4884C27.2718 16.215 27.2388 15.7834 27.4676 15.4708L28.1781 14.5026C28.4977 14.0671 28.5682 13.5289 28.37 13.026C28.1726 12.5223 27.7551 12.1753 27.2248 12.0735L26.0936 11.8565C25.7247 11.7852 25.4576 11.4625 25.4576 11.0873V8.91744C25.4576 8.53125 25.7395 8.20225 26.1218 8.1435L27.3086 7.96099C27.8436 7.87874 28.2736 7.54739 28.4898 7.05232C28.706 6.55647 28.6559 6.01597 28.3527 5.56791L27.7073 4.61459C27.4966 4.30439 27.5365 3.88687 27.8021 3.62132L29.3358 2.08677C29.6084 1.81339 30.04 1.78127 30.3534 2.00844L31.3216 2.71892C31.5895 2.91632 31.9028 3.0205 32.2271 3.0205C32.864 3.0205 33.5917 2.58889 33.7499 1.76561L33.9669 0.634472C34.039 0.267088 34.3617 -2.86102e-05 34.7377 -2.86102e-05H36.9075C37.2937 -2.86102e-05 37.6227 0.281971 37.6815 0.664238L37.8099 1.49849C37.9423 2.36015 38.6818 2.81136 39.3437 2.81136C39.6672 2.81136 39.9805 2.70639 40.2492 2.50899L40.9299 2.00922C41.2425 1.7797 41.6749 1.81339 41.9475 2.08755L43.4813 3.6221C43.7468 3.88766 43.7868 4.30439 43.576 4.61537L42.9306 5.56869C42.6274 6.01597 42.5773 6.55726 42.7935 7.05311C43.0089 7.54817 43.4397 7.87952 43.9748 7.96177L45.1615 8.14429C45.543 8.20304 45.8258 8.53204 45.8258 8.91822V11.0881C45.825 11.4633 45.5579 11.786 45.1889 11.8573ZM44.2583 9.58954L43.7358 9.50885C42.6752 9.34592 41.7861 8.66129 41.3576 7.6782C40.9284 6.69434 41.0318 5.5773 41.6334 4.68979L41.9162 4.27227L41.3146 3.67067L41.1759 3.7725C40.6362 4.16809 40.0025 4.37724 39.3429 4.37724C37.7927 4.37724 36.4955 3.26647 36.2605 1.73662L36.2354 1.56664H35.3847L35.2899 2.06249C35.0087 3.52575 33.7201 4.58874 32.2279 4.58874C31.5675 4.58874 30.9346 4.37881 30.3949 3.98479L29.9688 3.67224L29.3672 4.27384L29.65 4.69135C30.2516 5.57965 30.3542 6.69669 29.9257 7.67977C29.4972 8.66286 28.6073 9.34749 27.5475 9.51042L27.025 9.58954V10.4402L27.5208 10.535C28.5752 10.7379 29.4377 11.4554 29.8293 12.4534C30.221 13.4522 30.0761 14.5645 29.4424 15.4301L29.1298 15.8562L29.7314 16.4578L30.4278 15.9862C30.9464 15.6353 31.548 15.4489 32.1668 15.4489C33.659 15.4489 34.9461 16.5103 35.2273 17.9743L35.3847 18.8H36.2354L36.3161 18.2775C36.5519 16.7476 37.8475 15.6369 39.3977 15.6369C40.0158 15.6369 40.6166 15.8225 41.136 16.175L41.5535 16.4578L42.1551 15.8562L41.8425 15.4301C41.208 14.5653 41.0639 13.4529 41.4556 12.4534C41.8472 11.4554 42.7105 10.7379 43.764 10.535L44.2599 10.4402V9.58954H44.2583Z" fill="#4D7298"/>
<path d="M35.6416 14.1C33.482 14.1 31.725 12.343 31.725 10.1833C31.725 8.02366 33.482 6.26664 35.6416 6.26664C37.8013 6.26664 39.5583 8.02366 39.5583 10.1833C39.5583 12.343 37.8013 14.1 35.6416 14.1ZM35.6416 7.83331C34.346 7.83331 33.2916 8.88768 33.2916 10.1833C33.2916 11.4789 34.346 12.5333 35.6416 12.5333C36.9373 12.5333 37.9916 11.4789 37.9916 10.1833C37.9916 8.88768 36.9373 7.83331 35.6416 7.83331Z" fill="#4D7298"/>
<path d="M14.4916 29.7666H30.1583V37.6H14.4916V29.7666ZM16.8416 36.0333H27.8083V34.4666H16.8416V36.0333ZM16.8416 32.9H27.8083V31.3333H16.8416V32.9Z" fill="#4D7298"/>
<path d="M24.6734 4.32635L25.6941 5.8327L23.7726 6.12802C23.3911 6.18677 23.1083 6.51577 23.1083 6.90195V13.0284C23.1083 13.4036 23.3754 13.7271 23.7444 13.7976L25.5304 14.1407L24.3797 15.7074C24.1509 16.0192 24.1838 16.4516 24.458 16.725L28.7914 21.056C29.0577 21.3216 29.4737 21.3607 29.7847 21.1508L31.6161 19.9108L31.6584 20.1575L32.0274 22.0798C32.0979 22.4495 32.4206 22.7167 32.7958 22.7167H37.2083V47H9.00832H1.17499V0H9.00832H28.0997L24.7682 3.33387C24.5027 3.59941 24.4627 4.01615 24.6734 4.32635ZM7.44165 1.56667H2.74165V45.4333H7.44165V1.56667ZM12.925 39.1667H31.725V28.2H12.925V39.1667Z" fill="#4D7298"/>
</g>
<defs>
<clipPath id="clip0_5_6">
<rect width="47" height="47" fill="white" transform="matrix(1 0 0 -1 0 47)"/>
</clipPath>
</defs>
</svg>
