<svg width="249" height="249" viewBox="0 0 249 249" fill="none" xmlns="http://www.w3.org/2000/svg">
<g clip-path="url(#clip0_7_447)">
<g filter="url(#filter0_d_7_447)">
<path d="M167.297 93.375C169.445 93.375 171.188 91.632 171.188 89.4844V42.7969C171.188 40.6493 169.445 38.9062 167.297 38.9062H42.7969C40.6493 38.9062 38.9062 40.6493 38.9062 42.7969V89.4844C38.9062 91.632 40.6493 93.375 42.7969 93.375H167.297ZM46.6875 46.6875H163.406V85.5938H46.6875V46.6875Z" fill="#4D7298"/>
<path d="M35.0156 128.391C35.0156 130.538 36.7586 132.281 38.9062 132.281H163.406C165.554 132.281 167.297 130.538 167.297 128.391C167.297 126.243 165.554 124.5 163.406 124.5H38.9062C36.7586 124.5 35.0156 126.243 35.0156 128.391Z" fill="#4D7298"/>
<path d="M38.9062 171.188H163.406C165.554 171.188 167.297 169.444 167.297 167.297C167.297 165.149 165.554 163.406 163.406 163.406H38.9062C36.7586 163.406 35.0156 165.149 35.0156 167.297C35.0156 169.444 36.7586 171.188 38.9062 171.188Z" fill="#4D7298"/>
<path d="M38.9062 202.312H163.406C165.554 202.312 167.297 200.569 167.297 198.422C167.297 196.274 165.554 194.531 163.406 194.531H38.9062C36.7586 194.531 35.0156 196.274 35.0156 198.422C35.0156 200.569 36.7586 202.312 38.9062 202.312Z" fill="#4D7298"/>
<path d="M237.328 54.4688H220.956C218.809 54.4688 217.066 56.2118 217.066 58.3594C217.066 60.507 218.809 62.25 220.956 62.25H237.328C239.476 62.25 241.219 64.0008 241.219 66.1406V237.328C241.219 239.468 239.476 241.219 237.328 241.219H202.312V11.6719C202.312 5.23678 197.076 0 190.641 0H11.6719C5.23678 0 0 5.23678 0 11.6719V232.34C0 241.53 7.47 249 16.6597 249H163.406C165.554 249 167.297 247.257 167.297 245.109C167.297 242.962 165.554 241.219 163.406 241.219H16.6597C11.7653 241.219 7.78125 237.235 7.78125 232.34V11.6719C7.78125 9.53203 9.52425 7.78125 11.6719 7.78125H190.641C192.788 7.78125 194.531 9.53203 194.531 11.6719V245.109C194.531 247.257 196.274 249 198.422 249H237.328C243.763 249 249 243.763 249 237.328V66.1406C249 59.7055 243.763 54.4688 237.328 54.4688Z" fill="#4D7298"/>
</g>
</g>
<defs>
<filter id="filter0_d_7_447" x="-4" y="0" width="257" height="257" filterUnits="userSpaceOnUse" color-interpolation-filters="sRGB">
<feFlood flood-opacity="0" result="BackgroundImageFix"/>
<feColorMatrix in="SourceAlpha" type="matrix" values="0 0 0 0 0 0 0 0 0 0 0 0 0 0 0 0 0 0 127 0" result="hardAlpha"/>
<feOffset dy="4"/>
<feGaussianBlur stdDeviation="2"/>
<feComposite in2="hardAlpha" operator="out"/>
<feColorMatrix type="matrix" values="0 0 0 0 0 0 0 0 0 0 0 0 0 0 0 0 0 0 0.25 0"/>
<feBlend mode="normal" in2="BackgroundImageFix" result="effect1_dropShadow_7_447"/>
<feBlend mode="normal" in="SourceGraphic" in2="effect1_dropShadow_7_447" result="shape"/>
</filter>
<clipPath id="clip0_7_447">
<rect width="249" height="249" fill="white"/>
</clipPath>
</defs>
</svg>
