<svg width="101" height="101" viewBox="0 0 101 101" fill="none" xmlns="http://www.w3.org/2000/svg">
<g opacity="0.5" filter="url(#filter0_d_9_115)">
<path d="M50.5001 92.5833C73.7421 92.5833 92.5834 73.742 92.5834 50.5C92.5834 27.258 73.7421 8.41667 50.5001 8.41667C27.2581 8.41667 8.41675 27.258 8.41675 50.5C8.41675 73.742 27.2581 92.5833 50.5001 92.5833Z" fill="#4D7298"/>
</g>
<path d="M31.0473 52.8382L28.6844 54.9305C29.2537 55.5736 30.0604 55.9565 30.9184 55.9915C31.7765 56.0268 32.6117 55.7108 33.2316 55.1161L31.0473 52.8382ZM40.0594 48.5701C41.3177 47.3635 41.3597 45.3654 40.1533 44.1071C38.9469 42.8492 36.9489 42.8072 35.6907 44.0133L40.0594 48.5701ZM27.6129 44.1993C26.4572 42.8943 24.4625 42.7731 23.1575 43.9287C21.8525 45.0843 21.7315 47.079 22.8871 48.384L27.6129 44.1993ZM62.8376 37.9141C64.0214 39.1938 66.0183 39.2715 67.2976 38.0877C68.5773 36.904 68.6552 34.9071 67.4714 33.6275L62.8376 37.9141ZM50.6839 26.3021C38.1192 26.3021 27.891 36.4147 27.891 48.9412H34.2035C34.2035 39.9476 41.5586 32.6146 50.6839 32.6146V26.3021ZM27.891 48.9412V52.8382H34.2035V48.9412H27.891ZM33.2316 55.1161L40.0594 48.5701L35.6907 44.0133L28.8629 50.5598L33.2316 55.1161ZM33.4102 50.7453L27.6129 44.1993L22.8871 48.384L28.6844 54.9305L33.4102 50.7453ZM67.4714 33.6275C63.3064 29.1255 57.3226 26.3021 50.6839 26.3021V32.6146C55.4991 32.6146 59.8232 34.6558 62.8376 37.9141L67.4714 33.6275Z" fill="#4D7298"/>
<path d="M69.9374 48.1614L72.297 46.0653C71.7268 45.4235 70.92 45.0418 70.0624 45.0077C69.2047 44.9736 68.3702 45.2905 67.7512 45.8851L69.9374 48.1614ZM60.9387 52.4278C59.6812 53.6352 59.6413 55.6333 60.8486 56.8904C62.056 58.1478 64.0541 58.1882 65.3112 56.9808L60.9387 52.4278ZM73.3903 56.8007C74.548 58.1036 76.5432 58.2214 77.8461 57.0637C79.1494 55.906 79.2673 53.9113 78.1095 52.608L73.3903 56.8007ZM38.0722 63.1448C36.8793 61.8739 34.8819 61.8103 33.6108 63.0034C32.3398 64.196 32.2764 66.1937 33.4693 67.4646L38.0722 63.1448ZM50.2255 74.6975C62.8202 74.6975 73.0936 64.5962 73.0936 52.0583H66.7811C66.7811 61.0406 59.4039 68.385 50.2255 68.385V74.6975ZM73.0936 52.0583V48.1614H66.7811V52.0583H73.0936ZM67.7512 45.8851L60.9387 52.4278L65.3112 56.9808L72.1236 50.4381L67.7512 45.8851ZM67.5778 50.258L73.3903 56.8007L78.1095 52.608L72.297 46.0653L67.5778 50.258ZM33.4693 67.4646C37.6453 71.9141 43.613 74.6975 50.2255 74.6975V68.385C45.4163 68.385 41.0962 66.3671 38.0722 63.1448L33.4693 67.4646Z" fill="#4D7298"/>
<defs>
<filter id="filter0_d_9_115" x="4.41675" y="8.41667" width="92.1667" height="92.1667" filterUnits="userSpaceOnUse" color-interpolation-filters="sRGB">
<feFlood flood-opacity="0" result="BackgroundImageFix"/>
<feColorMatrix in="SourceAlpha" type="matrix" values="0 0 0 0 0 0 0 0 0 0 0 0 0 0 0 0 0 0 127 0" result="hardAlpha"/>
<feOffset dy="4"/>
<feGaussianBlur stdDeviation="2"/>
<feComposite in2="hardAlpha" operator="out"/>
<feColorMatrix type="matrix" values="0 0 0 0 0 0 0 0 0 0 0 0 0 0 0 0 0 0 0.25 0"/>
<feBlend mode="normal" in2="BackgroundImageFix" result="effect1_dropShadow_9_115"/>
<feBlend mode="normal" in="SourceGraphic" in2="effect1_dropShadow_9_115" result="shape"/>
</filter>
</defs>
</svg>
