<svg width="51" height="51" viewBox="0 0 51 51" fill="none" xmlns="http://www.w3.org/2000/svg">
<path d="M17.3401 28.2742L23.1949 22.032C23.4856 21.7089 23.8412 21.4504 24.2383 21.2735C24.6353 21.0967 25.0654 21.0051 25.5001 21.0051C25.9348 21.0051 26.3648 21.0967 26.7618 21.2735C27.159 21.4504 27.5146 21.7089 27.8053 22.032L33.6601 28.2742" stroke="black" stroke-width="3.6" stroke-linecap="round" stroke-linejoin="round"/>
<path d="M7.13989 15.1366V35.5366C7.13989 40.0434 10.7932 43.6966 15.2999 43.6966H35.6999C40.2065 43.6966 43.8599 40.0434 43.8599 35.5366V15.1366C43.8599 10.63 40.2065 6.97664 35.6999 6.97664H15.2999C10.7932 6.97664 7.13989 10.63 7.13989 15.1366Z" stroke="black" stroke-width="3.6" stroke-linecap="round" stroke-linejoin="round"/>
</svg>
