<svg width="101" height="101" viewBox="0 0 101 101" fill="none" xmlns="http://www.w3.org/2000/svg">
<g filter="url(#filter0_d_9_105)">
<path fill-rule="evenodd" clip-rule="evenodd" d="M92.5832 50.5C92.5832 73.7418 73.7416 92.5833 50.4998 92.5833C27.2578 92.5833 8.4165 73.7418 8.4165 50.5C8.4165 27.258 27.2578 8.41667 50.4998 8.41667C73.7416 8.41667 92.5832 27.258 92.5832 50.5ZM37.747 37.7473C38.9796 36.5147 40.978 36.5147 42.2107 37.7473L50.4998 46.0362L58.7886 37.7474C60.0212 36.5148 62.0197 36.5148 63.2523 37.7474C64.485 38.9799 64.485 40.9784 63.2523 42.2108L54.9632 50.5L63.2523 58.7887C64.485 60.0214 64.485 62.0199 63.2523 63.2525C62.0197 64.4851 60.0212 64.4851 58.7886 63.2525L50.4998 54.9638L42.2107 63.2525C40.9781 64.4851 38.9797 64.4851 37.7471 63.2525C36.5145 62.0199 36.5145 60.0214 37.7471 58.7892L46.0361 50.5L37.747 42.2108C36.5144 40.9783 36.5144 38.9799 37.747 37.7473Z" fill="#4D7298"/>
</g>
<defs>
<filter id="filter0_d_9_105" x="4.4165" y="8.41667" width="92.1665" height="92.1667" filterUnits="userSpaceOnUse" color-interpolation-filters="sRGB">
<feFlood flood-opacity="0" result="BackgroundImageFix"/>
<feColorMatrix in="SourceAlpha" type="matrix" values="0 0 0 0 0 0 0 0 0 0 0 0 0 0 0 0 0 0 127 0" result="hardAlpha"/>
<feOffset dy="4"/>
<feGaussianBlur stdDeviation="2"/>
<feComposite in2="hardAlpha" operator="out"/>
<feColorMatrix type="matrix" values="0 0 0 0 0 0 0 0 0 0 0 0 0 0 0 0 0 0 0.25 0"/>
<feBlend mode="normal" in2="BackgroundImageFix" result="effect1_dropShadow_9_105"/>
<feBlend mode="normal" in="SourceGraphic" in2="effect1_dropShadow_9_105" result="shape"/>
</filter>
</defs>
</svg>
